<?xml version="1.0" encoding="utf-8"?>
<!-- Generator: Adobe Illustrator 27.8.0, SVG Export Plug-In . SVG Version: 6.00 Build 0)  -->
<svg version="1.1" id="Layer_1" xmlns="http://www.w3.org/2000/svg" xmlns:xlink="http://www.w3.org/1999/xlink" x="0px" y="0px"
	 width="410px" height="410px" viewBox="0 0 410 410" style="enable-background:new 0 0 410 410;" xml:space="preserve">
<g>
	<path d="M9.8,113.6c4.9-15.9,15.4-21.3,32-20.8c32.5,1.1,65.1,0.4,97.7,0.2c4.4,0,9.8-0.3,12.9-2.7c19.9-15.9,42.3-26.5,66.9-32
		C219,30.6,229.6,16.9,250,18.1c19,1.1,29.2,16.5,25.4,40.3c55,12.7,94,44.8,114.9,98c-46.2,33.3-69.2,77.2-70.5,133.6
		c-0.3,11.7-9.5,23.3-14.8,35.6c1.7,0.7,4.6,1.6,7.3,3c9.2,4.8,13,12.6,11.3,22.8c-1.7,10.5-8.7,16.6-18.7,17.2
		c-14.1,0.9-28.4,1.2-42.5,0c-16.5-1.4-23.7-17.5-15.1-32.7c8.4-14.9,18.1-29,26.2-44.1c2.2-4.2,2.4-11,0.6-15.5
		c-4.6-11.6-10.5-22.7-16.4-33.7c-1.6-2.9-4.9-5-9.8-9.7c-0.9,15.3-2.1,26.9-2.1,38.5c0,11.8-5.7,18.4-16.1,22.6
		c-18.5,7.4-36.9,15.3-55.8,23.1c2.4,5,4.6,9,6.3,13.2c4.1,10.3,0.7,20.8-8.3,26.1c-9.1,5.3-20.8,3.9-26.9-5.1
		c-8-11.7-15.3-24-21.3-36.7c-5.6-11.8,0-23,12.8-28.3c16.5-6.9,33.2-13.4,49.9-19.9c19.1-7.5,19.2-7.4,17.7-30.5c-4.2,0-8.6,0-13,0
		c-32.2,0-64.3,0-96.5,0c-16.9,0-24.6-6-25.2-19.3c-0.6-14.2,5.7-20.4,22.3-22.5c3.1-0.4,5.9-2.3,8.9-3.5c-0.3-1.4-0.6-2.9-1-4.3
		c-11.4,0-22.9,0.1-34.3,0c-15.4-0.1-25.4-9-25.1-21.8c0.3-12.6,9.8-20.7,24.7-20.8c13.4-0.1,26.7,0.2,40.1-0.2
		c3.5-0.1,7-2.3,10.5-3.5c-0.3-1.3-0.7-2.6-1-3.8c-24.1,0-48.2-0.7-72.3,0.2C26.3,137,15,132,9.8,116.1
		C9.8,115.3,9.8,114.4,9.8,113.6z M352.8,179c-0.8-37.8-29-73.7-61.7-80.9c-4.3-0.9-10,4.2-15,6.6c2.6,4.5,4.3,11.8,8,13.2
		c28.1,10.1,43.2,29.5,47,58.9c0.6,4.3,7.6,10.6,11.8,10.8C346.8,187.8,350.9,180.8,352.8,179z"/>
</g>
</svg>
