<?xml version="1.0" encoding="utf-8"?>
<!-- Generator: Adobe Illustrator 27.8.0, SVG Export Plug-In . SVG Version: 6.00 Build 0)  -->
<svg version="1.1" id="Layer_1" xmlns="http://www.w3.org/2000/svg" xmlns:xlink="http://www.w3.org/1999/xlink" x="0px" y="0px"
	 width="50px" height="50px" viewBox="0 0 50 50" enable-background="new 0 0 50 50" xml:space="preserve">
<g>
	<path fill="#015BBB" d="M26.37,48.41c-0.91,0-1.83,0-2.74,0c-0.12-0.03-0.23-0.07-0.35-0.07c-3.28-0.22-6.39-1.09-9.26-2.68
		C7.42,42.01,3.39,36.48,1.95,29.08c-0.17-0.9-0.2-1.81-0.36-2.7c0-0.91,0-1.83,0-2.74c0.03-0.13,0.07-0.26,0.08-0.39
		c0.23-3.27,1.07-6.37,2.68-9.22C8.66,6.35,15.23,2.17,24.02,1.64c4.61-0.28,8.97,0.82,12.91,3.25
		c7.11,4.38,10.94,10.79,11.44,19.13c0.25,4.22-0.67,8.25-2.71,11.96c-3.63,6.6-9.17,10.63-16.58,12.07
		C28.18,48.22,27.27,48.25,26.37,48.41z M19.86,23.49c0.06-0.18,0.21-0.27,0.32-0.38c1.79-1.79,3.57-3.58,5.36-5.37
		c0.13-0.13,0.26-0.26,0.37-0.4c0.61-0.82,0.21-2.01-0.78-2.27c-0.62-0.16-1.12,0.06-1.56,0.51c-2.63,2.64-5.28,5.28-7.91,7.92
		c-0.89,0.89-0.89,2.11,0,3c2.62,2.62,5.23,5.24,7.85,7.85c0.09,0.09,0.17,0.17,0.26,0.25c0.48,0.42,1.11,0.5,1.66,0.21
		c0.55-0.29,0.83-0.85,0.76-1.49c-0.05-0.42-0.29-0.72-0.58-1.01c-1.82-1.82-3.64-3.64-5.46-5.46c-0.11-0.11-0.26-0.19-0.29-0.39
		c0.2,0,0.36,0,0.53,0c4.81,0,9.63,0,14.44,0c0.18,0,0.37,0.01,0.55-0.01c0.75-0.08,1.32-0.71,1.32-1.45c0-0.74-0.56-1.37-1.31-1.45
		c-0.18-0.02-0.37-0.01-0.55-0.01c-4.83,0-9.66,0-14.49,0C20.19,23.54,20.02,23.58,19.86,23.49z"/>
</g>
</svg>
