<?xml version="1.0" encoding="utf-8"?>
<!-- Generator: Adobe Illustrator 27.8.0, SVG Export Plug-In . SVG Version: 6.00 Build 0)  -->
<svg version="1.1" id="Layer_1" xmlns="http://www.w3.org/2000/svg" xmlns:xlink="http://www.w3.org/1999/xlink" x="0px" y="0px"
	 width="50px" height="50px" viewBox="0 0 50 50" style="enable-background:new 0 0 50 50;" xml:space="preserve">
<style type="text/css">
	.st0{fill:#015BBB;}
</style>
<g>
	<path class="st0" d="M1.6,6c0.4-1,1.1-1.3,2.1-1.3c1.8,0,3.6,0,5.4,0c2.2,0,3.7,1.2,4.2,3.3c0.2,0.9,0.4,1.7,0.6,2.6
		c0.1,0.3,0.2,0.4,0.5,0.4c0.1,0,0.2,0,0.4,0c10.5,0,21.1,0,31.6,0c0.3,0,0.6,0,0.8,0c0.8,0.2,1.4,1,1.2,1.9
		c-0.3,1.5-0.7,2.9-1.1,4.4c-1,4-2,8-3,12.1c-0.2,1-0.8,1.4-1.8,1.4c-7.7,0-15.4,0-23,0c-0.2,0-0.4,0-0.6,0c0.3,1.2,0.6,2.4,0.9,3.5
		c0.1,0.2,0.4,0.3,0.6,0.5c0.1,0.1,0.3,0,0.5,0c6.2,0,12.3,0,18.5,0c2.7,0,4.7,1.7,5.2,4.2c0.5,2.8-1.4,5.5-4.2,6
		c-2.8,0.5-5.5-1.4-6-4.2c-0.2-0.9-0.1-1.8,0.2-2.8c-3.5,0-7,0-10.4,0c0.1,0.5,0.2,1.1,0.2,1.6c0.1,2.8-1.9,5.1-4.6,5.4
		c-2.8,0.3-5.2-1.6-5.6-4.4c-0.3-2.1,0.5-3.7,2.2-5c0.3-0.2,0.3-0.3,0.2-0.6c-2.2-8.8-4.3-17.6-6.5-26.3c-0.2-0.6-0.3-0.8-1-0.8
		c-1.8,0-3.6,0-5.4,0c-1,0-1.7-0.3-2.2-1.2C1.6,6.6,1.6,6.3,1.6,6z M44.7,14.4c-10,0-19.9,0-29.9,0c0,0.1,0,0.2,0,0.2
		c1,4.2,2.1,8.5,3.1,12.7c0.1,0.3,0.2,0.3,0.5,0.3c7.6,0,15.1,0,22.7,0c0.3,0,0.4-0.1,0.5-0.4c0.5-1.9,0.9-3.8,1.4-5.7
		C43.5,19.2,44.1,16.8,44.7,14.4z M37.5,40c0,1,0.8,1.9,1.9,1.9c1,0,1.9-0.9,1.9-1.9c0-1-0.8-1.9-1.9-1.9C38.4,38.2,37.5,39,37.5,40
		z M19.3,38.2c-1.1,0-1.9,0.8-1.9,1.8c0,1,0.8,1.9,1.9,1.9c1,0,1.9-0.8,1.9-1.8C21.1,39.1,20.3,38.2,19.3,38.2z"/>
</g>
</svg>
